<?xml version="1.0" standalone="no"?>
<!DOCTYPE svg PUBLIC "-//W3C//DTD SVG 20010904//EN"
 "http://www.w3.org/TR/2001/REC-SVG-20010904/DTD/svg10.dtd">
<svg version="1.0" xmlns="http://www.w3.org/2000/svg"
 width="666.000000pt" height="666.000000pt" viewBox="0 0 666.000000 666.000000"
 preserveAspectRatio="xMidYMid meet">
<metadata>
Created by potrace 1.11, written by Peter Selinger 2001-2013
</metadata>
<g transform="translate(0.000000,666.000000) scale(0.100000,-0.100000)"
fill="#000000" stroke="none">
<path d="M0 6264 l0 -396 40 4 c23 2 40 -1 40 -7 1 -20 30 29 30 50 0 30 19
45 56 45 27 0 35 -6 51 -37 16 -34 23 -39 64 -43 35 -4 53 -14 82 -42 20 -21
37 -42 37 -48 0 -5 4 -10 10 -10 5 0 7 7 4 15 -4 10 6 20 30 32 20 9 36 24 36
33 0 12 14 19 48 26 l47 9 -47 23 c-27 13 -48 29 -48 35 0 7 -9 18 -20 25 -41
25 -19 48 70 70 27 6 47 4 90 -13 30 -12 98 -30 150 -39 119 -22 138 -31 146
-70 11 -60 16 -61 174 -63 80 -1 182 -6 228 -13 59 -8 87 -8 96 -1 7 6 57 18
112 26 87 13 101 13 121 0 12 -8 31 -15 42 -15 11 0 23 -4 26 -10 9 -15 48
-12 84 6 39 20 86 13 118 -18 35 -33 29 -52 -21 -66 -36 -9 -54 -9 -90 2 -25
8 -46 11 -46 7 0 -20 -92 -34 -210 -32 -69 2 -138 2 -155 0 -106 -8 -306 -2
-410 13 -69 10 -179 18 -257 18 -137 -1 -138 -1 -144 -25 -9 -36 29 -81 75
-89 52 -8 98 -33 104 -55 6 -26 109 -37 205 -22 91 14 158 14 220 -1 45 -10
54 -9 91 10 48 25 95 28 131 7 14 -8 43 -14 66 -15 22 0 45 -5 51 -11 6 -6 39
-13 74 -16 67 -5 119 -20 119 -34 0 -20 49 -34 144 -39 5 0 3 -7 -4 -15 -7 -8
-9 -15 -4 -15 5 0 2 -5 -6 -10 -8 -5 -10 -10 -5 -10 6 0 11 -9 11 -20 0 -11
-3 -20 -6 -20 -13 0 -3 -42 11 -51 12 -7 11 -9 -2 -9 -12 0 -15 -7 -11 -27 2
-16 1 -24 -4 -20 -4 4 -23 -16 -41 -45 -37 -59 -42 -80 -13 -53 11 10 20 14
20 8 0 -5 -9 -18 -21 -29 -12 -10 -31 -40 -42 -66 -12 -28 -27 -48 -36 -48
-14 -1 -13 -3 2 -14 21 -16 22 -26 3 -26 -19 0 -27 37 -10 51 8 6 14 20 14 31
0 15 -4 17 -17 9 -9 -5 -40 -7 -68 -4 -39 4 -54 2 -64 -11 -14 -17 -83 -22
-129 -10 -25 7 -52 51 -52 83 0 42 -106 43 -127 1 -26 -53 -83 -66 -133 -30
-15 11 -57 24 -93 29 -36 5 -85 18 -109 28 -28 13 -52 17 -68 12 -46 -13 -90
-9 -130 11 -22 11 -49 20 -60 20 -25 0 -47 20 -52 46 -4 27 -17 33 -53 27 -17
-3 -48 2 -69 11 -37 15 -41 15 -73 -4 -19 -11 -45 -20 -59 -20 -32 0 -30 -12
5 -33 20 -12 51 -17 98 -17 63 0 148 -19 236 -52 16 -6 36 -26 47 -48 12 -24
30 -41 52 -50 18 -6 49 -18 68 -25 46 -18 108 -25 265 -28 124 -3 132 -5 177
-33 26 -16 48 -35 48 -41 0 -7 5 -13 10 -13 6 0 10 -7 10 -15 0 -8 -4 -15 -10
-15 -5 0 -10 -6 -10 -14 0 -8 -5 -16 -12 -18 -10 -4 6 -36 39 -78 2 -2 39 -3
82 -1 44 1 87 -2 98 -8 10 -6 39 -19 66 -30 45 -19 47 -22 47 -59 0 -31 5 -43
24 -56 20 -12 26 -27 31 -73 3 -32 12 -96 20 -143 23 -140 29 -228 16 -244 -7
-8 -14 -36 -16 -63 -2 -26 -8 -59 -13 -73 -13 -34 -10 -45 12 -41 15 2 17 -1
11 -16 -4 -10 -11 -61 -16 -113 -9 -109 -32 -261 -43 -279 -4 -6 -2 -27 4 -47
18 -53 17 -254 -1 -264 -11 -7 -11 -15 -1 -43 6 -18 13 -78 15 -133 3 -62 10
-112 20 -134 8 -19 23 -66 32 -105 10 -38 20 -72 24 -75 4 -3 14 -43 24 -90 9
-47 24 -114 31 -149 13 -55 13 -66 0 -78 -8 -8 -14 -18 -14 -22 0 -5 -33 -14
-73 -20 -61 -10 -84 -9 -142 4 -102 23 -103 24 -135 58 -41 44 -44 57 -21 118
20 51 20 69 -1 69 -5 0 -24 6 -41 14 -50 22 -75 25 -94 10 -10 -7 -25 -14 -34
-14 -9 0 -28 -9 -42 -20 -16 -12 -40 -20 -65 -20 -45 0 -56 -10 -58 -55 -1
-16 -5 -40 -9 -53 l-7 -23 94 7 c84 6 96 5 101 -11 10 -23 6 -27 -58 -59 -48
-25 -64 -28 -115 -23 -51 4 -61 2 -77 -17 -40 -45 -52 -90 -25 -91 4 -1 18 -7
30 -14 20 -10 23 -19 20 -47 -2 -19 0 -34 7 -34 21 -1 -38 -36 -81 -49 -24 -7
-58 -26 -74 -41 -17 -16 -46 -30 -71 -34 -58 -9 -99 -32 -136 -74 -31 -35 -32
-35 -71 -24 -76 23 -111 14 -169 -41 -18 -17 -34 -29 -36 -26 -12 18 -37 83
-37 97 0 10 12 42 27 72 14 29 27 71 27 94 1 37 -2 42 -44 66 -42 25 -45 29
-44 66 1 48 42 205 58 221 6 6 27 15 48 18 49 9 67 -18 66 -100 0 -47 5 -70
27 -108 31 -55 42 -62 111 -72 50 -6 52 -5 74 26 13 17 46 42 76 56 61 28 70
43 43 74 -10 12 -23 38 -29 58 -9 33 -7 38 25 69 24 23 40 52 51 94 16 55 21
62 58 79 23 10 51 19 63 19 22 0 43 41 43 83 0 22 -16 21 -132 -4 -61 -14
-138 -3 -185 27 -35 22 -52 17 -67 -21 -8 -19 -22 -35 -31 -35 -21 0 -35 41
-29 82 6 38 -17 100 -44 120 -10 7 -21 20 -24 29 -9 24 32 59 68 59 18 0 45
13 73 35 25 20 56 38 70 42 14 3 39 14 56 24 16 10 58 23 93 30 34 7 71 21 81
30 16 15 24 16 52 6 19 -7 39 -15 44 -19 6 -3 39 -12 74 -19 42 -8 75 -21 95
-39 47 -40 64 -43 92 -15 13 13 24 33 24 44 0 27 51 61 92 61 44 0 57 10 52
40 -10 72 -17 108 -26 132 -10 26 -12 27 -37 14 -50 -25 -140 -48 -165 -42
-31 8 -86 53 -86 72 0 12 -14 13 -80 8 -66 -6 -87 -4 -121 11 -48 22 -50 20
-69 -70 -14 -69 -37 -99 -81 -110 -32 -8 -59 23 -59 68 0 29 -1 29 -42 23 -94
-14 -183 -9 -224 12 -22 11 -80 30 -130 43 -109 27 -144 56 -144 120 0 57 31
85 104 94 l57 7 -3 37 c-3 31 0 36 20 39 14 2 22 10 22 23 0 14 -7 19 -30 19
-19 0 -30 -5 -30 -14 0 -19 -14 -28 -34 -20 -22 9 -20 34 3 34 10 0 26 11 35
24 8 14 24 27 35 31 12 4 18 14 17 29 -1 21 -4 22 -25 14 -29 -10 -88 16 -96
43 -9 26 -51 60 -76 61 -43 1 -129 19 -129 27 0 11 -105 23 -135 15 l-25 -6 0
-2049 0 -2049 1625 0 c1408 0 1625 2 1625 14 0 8 5 18 11 22 8 4 9 0 4 -15
l-6 -21 1700 0 1701 0 0 611 c0 485 -3 609 -12 603 -10 -6 -10 -4 0 7 14 16
16 43 2 34 -6 -3 -10 2 -10 12 0 11 -7 5 -19 -17 -14 -27 -26 -36 -52 -39
l-34 -4 30 -7 30 -8 -32 -1 c-34 -1 -45 15 -18 25 10 4 13 14 9 30 -4 17 -1
26 11 30 9 4 14 13 11 20 -3 7 -1 16 4 19 6 4 10 17 10 30 0 18 7 26 25 31 31
8 55 34 31 34 -10 0 -15 -4 -12 -8 3 -4 -8 -13 -25 -19 -23 -9 -29 -9 -29 2 0
7 -6 16 -12 18 -7 3 1 6 17 6 23 1 27 4 15 11 -8 5 -26 10 -40 11 -20 1 -18 3
10 9 l35 7 -31 2 c-38 1 -65 27 -37 34 14 4 13 5 -4 6 -13 0 -23 -3 -23 -9 0
-19 -16 -10 -17 10 -1 12 4 20 14 20 14 0 14 3 -2 20 -10 11 -21 17 -26 15 -4
-3 -23 4 -41 15 -18 11 -26 20 -17 20 8 0 20 -5 25 -10 11 -11 52 -22 89 -24
11 0 26 -7 34 -14 8 -8 25 -12 38 -9 15 3 27 -1 30 -9 3 -8 9 -11 14 -8 5 3 9
439 9 1035 l0 1029 -69 0 c-49 0 -88 7 -135 25 -48 18 -86 25 -136 25 -45 0
-86 7 -118 19 -28 11 -85 27 -128 35 -129 26 -167 37 -217 63 -46 24 -49 24
-88 9 -22 -9 -53 -16 -69 -16 -45 0 -230 56 -262 80 -15 11 -59 27 -97 35 -38
8 -99 30 -135 49 -71 38 -113 51 -281 91 -60 15 -130 35 -154 46 -24 10 -47
17 -51 14 -4 -3 -10 8 -13 23 -7 32 2 112 13 112 3 0 5 13 2 29 -4 26 -1 29
35 34 92 16 113 10 159 -39 35 -38 49 -47 85 -51 25 -2 62 2 84 10 l40 14 -40
7 c-73 14 -125 81 -125 162 0 52 23 74 76 74 31 0 46 -7 68 -29 16 -16 42 -35
60 -42 17 -7 33 -16 36 -20 8 -10 81 -44 128 -59 24 -8 62 -30 85 -50 23 -20
60 -41 83 -48 22 -7 55 -25 72 -42 29 -28 37 -30 104 -30 44 0 109 -10 163
-24 81 -21 93 -22 118 -9 15 8 36 12 45 8 54 -17 301 3 327 26 5 5 34 9 65 9
39 0 51 -3 40 -10 -13 -8 -13 -10 1 -10 9 0 24 -9 35 -21 14 -16 27 -20 51
-16 21 4 46 -1 72 -14 22 -10 47 -19 56 -19 13 0 15 135 15 1320 l0 1320 -835
0 c-550 0 -835 -3 -835 -10 0 -5 -9 -10 -19 -10 -11 0 -23 5 -26 10 -4 6 -61
10 -139 10 l-134 0 -16 -50 c-15 -44 -15 -53 -2 -78 20 -38 2 -73 -42 -86 -31
-9 -100 -1 -169 20 -16 4 -28 -1 -48 -22 -80 -90 -73 -86 -154 -81 -67 5 -75
4 -95 -17 -31 -34 -47 -36 -122 -19 -79 18 -104 35 -104 73 0 52 78 73 170 45
l25 -8 -22 22 c-12 11 -27 21 -32 21 -20 0 -25 51 -7 68 14 15 37 17 154 14
75 -2 154 -8 175 -13 57 -15 188 13 165 36 -2 3 -58 7 -124 10 -65 3 -137 12
-159 19 -115 40 -199 46 -675 46 l-461 0 5 -94 c3 -51 10 -105 15 -118 5 -14
12 -52 14 -84 3 -32 10 -71 16 -86 16 -41 5 -60 -31 -53 -28 7 -132 -19 -152
-37 -6 -4 -22 -8 -37 -8 -15 0 -40 -5 -56 -12 -15 -6 -32 -10 -37 -9 -5 1 -56
-10 -114 -24 -77 -19 -118 -35 -151 -59 -25 -19 -66 -44 -91 -56 -42 -21 -122
-70 -182 -111 -40 -28 -63 -23 -110 21 -34 32 -63 46 -142 71 -76 23 -182 48
-213 49 -1 0 -9 7 -18 16 -11 12 -46 19 -118 25 -56 4 -120 13 -142 19 -73 21
-140 42 -170 55 -16 7 -46 16 -66 19 -19 4 -51 17 -69 31 -26 19 -46 25 -86
25 -71 0 -80 13 -76 113 3 89 24 132 68 143 14 4 48 17 75 30 27 13 53 24 59
24 5 0 22 -23 38 -50 27 -51 31 -53 123 -75 62 -15 82 75 30 132 -16 18 -32
46 -36 63 -4 17 -12 33 -18 36 -7 2 -183 3 -391 2 -344 -3 -378 -4 -364 -19 9
-8 19 -29 22 -46 6 -25 3 -34 -16 -47 -33 -23 -74 -20 -112 9 -18 14 -45 25
-60 25 -29 0 -76 40 -76 65 0 13 -29 15 -230 15 l-230 0 0 -396z m5977 175 c2
-8 -2 -21 -7 -29 -8 -12 -11 -13 -19 -1 -11 17 -2 53 13 48 6 -2 12 -10 13
-18z m-727 -59 c0 -5 -7 -10 -16 -10 -8 0 -12 5 -9 10 3 6 10 10 16 10 5 0 9
-4 9 -10z m-1733 -138 c0 -24 -4 -28 -31 -27 -24 0 -32 5 -34 22 -2 17 1 21
11 17 8 -3 17 2 20 10 10 24 34 8 34 -22z m-216 18 c24 0 5 -18 -30 -28 -50
-16 -51 -15 -51 7 0 20 30 32 58 25 8 -2 18 -4 23 -4z m-95 -37 c-11 -11 -17
4 -9 23 7 18 8 18 11 1 2 -10 1 -21 -2 -24z m2775 -1 c22 -19 22 -20 10 -98
-7 -43 -17 -104 -23 -134 -6 -30 -13 -100 -17 -155 -5 -81 -11 -107 -29 -132
-12 -17 -22 -41 -22 -52 0 -34 -26 -88 -49 -100 -15 -9 -73 -9 -208 -2 -431
24 -546 40 -601 86 -33 27 -72 29 -126 4 -105 -48 -215 4 -161 75 22 29 19 33
-32 41 -89 13 -134 12 -157 -6 -30 -23 -84 -30 -71 -9 7 12 4 12 -95 15 -43 2
-76 7 -78 14 -2 6 -10 11 -18 11 -8 0 -14 4 -14 10 0 5 -17 18 -37 28 -21 10
-37 24 -35 30 1 7 -4 12 -12 12 -7 0 -19 7 -26 15 -7 9 -15 13 -18 11 -3 -3
-22 8 -42 24 -21 17 -42 30 -46 30 -5 0 -22 11 -39 24 -16 14 -50 40 -74 58
-25 18 -46 38 -48 43 -5 15 69 35 126 35 31 0 53 5 61 15 18 22 82 19 113 -5
14 -11 32 -20 41 -20 9 0 36 -5 60 -12 45 -12 50 -11 173 21 22 6 56 3 110
-10 174 -42 299 -58 473 -63 152 -4 186 -2 255 16 48 12 97 18 124 15 36 -4
57 2 115 29 82 40 106 42 146 12 l30 -21 46 23 c25 13 56 37 67 52 59 77 70
88 87 88 10 0 28 -8 41 -18z m-5630 -18 l24 -26 -22 -18 c-36 -29 -190 -50
-250 -34 -32 9 -32 66 0 82 39 19 50 20 138 21 80 1 87 -1 110 -25z m807 -76
c3 -22 -2 -30 -22 -39 -37 -17 -60 -5 -51 28 13 52 68 59 73 11z m-29 -163
c30 -30 -37 -53 -81 -28 -5 2 -8 16 -8 30 0 24 2 25 37 20 20 -4 43 -13 52
-22z m2114 -122 c4 10 11 16 15 13 5 -3 24 -8 43 -11 19 -3 36 -11 37 -16 3
-6 8 -6 17 1 16 14 75 1 75 -16 0 -18 14 -18 30 1 7 8 17 12 22 9 6 -4 4 -10
-6 -16 -9 -5 -16 -13 -16 -19 0 -6 9 -5 23 3 28 15 49 19 41 7 -3 -5 4 -9 16
-9 14 0 20 -5 18 -17 -2 -13 3 -17 19 -16 17 2 21 -1 16 -13 -5 -15 -3 -15 25
0 17 9 34 21 37 26 5 8 11 7 21 -1 11 -9 21 -9 40 0 14 6 30 11 37 11 15 0
-34 -39 -49 -40 -12 0 -28 -29 -21 -37 2 -2 16 6 31 18 17 13 35 19 48 16 12
-3 31 -1 42 5 21 11 21 11 2 -11 -22 -24 -10 -28 20 -7 11 8 37 17 57 21 20 4
37 11 37 16 0 5 10 9 23 9 21 -1 21 -1 2 -12 -11 -6 -22 -14 -25 -18 -3 -4
-12 -10 -20 -13 -10 -4 -8 -6 7 -6 12 -1 25 4 28 9 3 6 17 10 30 10 13 0 45 7
70 15 43 15 47 15 74 -5 16 -11 32 -20 35 -20 12 0 118 -99 171 -160 74 -86
174 -262 224 -395 13 -33 29 -71 36 -85 40 -76 89 -355 65 -370 -8 -5 -7 -12
5 -23 14 -14 14 -22 4 -57 -9 -30 -9 -50 -2 -75 7 -20 7 -33 2 -29 -6 3 -7 -5
-4 -19 4 -15 2 -28 -6 -32 -7 -5 -10 -4 -6 2 4 6 1 13 -6 16 -19 7 -21 -77 -1
-114 14 -27 16 -70 16 -288 0 -141 -3 -314 -7 -386 -3 -71 -8 -173 -10 -225
-2 -52 -5 -97 -6 -100 0 -3 0 -13 1 -24 1 -11 -3 -15 -9 -12 -6 4 -11 5 -11 2
0 -14 26 -62 40 -74 13 -10 10 -11 -14 -6 l-29 7 7 -51 c6 -45 5 -51 -10 -45
-14 5 -15 1 -9 -27 5 -25 4 -31 -6 -25 -9 6 -10 3 -5 -11 5 -10 11 -28 13 -39
l5 -20 -15 20 c-16 19 -16 18 -8 -12 6 -21 6 -33 -1 -35 -6 -2 -3 -12 7 -22
14 -14 15 -20 5 -26 -7 -4 -9 -13 -5 -21 5 -8 -4 -3 -18 10 -21 19 -27 21 -27
9 0 -9 6 -18 13 -21 9 -3 9 -8 -2 -21 -11 -13 -11 -20 -3 -28 7 -7 12 -21 11
-32 0 -20 -1 -20 -9 2 -12 27 -20 29 -13 2 3 -13 0 -20 -8 -20 -12 0 -12 -2 0
-9 17 -11 4 -34 -15 -27 -17 6 -17 1 -4 -25 7 -13 7 -19 0 -19 -5 0 -10 5 -10
11 0 5 -4 7 -10 4 -6 -4 -8 7 -4 27 l6 33 -15 -26 c-19 -34 -29 -79 -18 -79 5
0 12 -7 15 -16 4 -10 -6 -6 -25 11 -25 20 -34 23 -40 13 -5 -7 -9 -17 -9 -23
0 -5 4 -4 8 3 6 9 14 7 30 -8 12 -12 22 -25 22 -30 0 -6 -10 0 -21 11 -15 15
-23 18 -29 9 -11 -17 -20 11 -16 52 2 18 1 23 -1 11 -2 -13 -9 -23 -15 -23 -5
0 -8 -7 -4 -15 9 -25 -18 -12 -32 15 -12 25 -12 25 -10 -8 2 -20 -3 -37 -12
-43 -13 -9 -12 -10 2 -5 10 3 21 -2 26 -11 5 -9 16 -14 23 -11 10 4 14 -2 14
-18 0 -13 -3 -24 -7 -24 -5 0 -11 0 -15 0 -5 0 -8 4 -8 9 0 18 -13 22 -18 6
-4 -8 -1 -15 5 -15 9 0 9 -3 0 -12 -7 -7 -12 -21 -12 -32 0 -17 -4 -15 -20 12
-11 17 -26 32 -34 32 -16 0 -30 27 -16 32 4 2 1 9 -8 17 -14 13 -15 11 -9 -22
6 -36 5 -37 -25 -37 -22 0 -39 9 -60 32 -15 17 -28 37 -28 43 0 7 -9 20 -20
30 -11 10 -20 13 -20 8 0 -6 7 -13 15 -17 8 -3 15 -14 15 -25 0 -11 5 -23 10
-26 6 -3 10 -10 10 -16 0 -11 -42 11 -53 29 -4 6 -14 12 -22 12 -7 0 -16 8
-19 18 -3 9 -15 23 -26 30 -17 10 -20 10 -20 -4 0 -8 -4 -13 -10 -9 -5 3 -6
13 -3 22 4 11 2 14 -5 9 -6 -4 -21 -2 -32 4 -28 15 -25 4 8 -27 15 -14 19 -20
9 -12 -15 11 -20 10 -29 -2 -8 -11 -9 -11 -4 3 3 10 -2 23 -13 30 -9 7 -20 21
-24 31 -4 11 -12 15 -18 11 -7 -4 -18 1 -26 11 -11 16 -13 16 -13 3 0 -8 7
-21 16 -28 8 -8 20 -23 26 -34 9 -18 6 -17 -18 5 -78 72 -99 89 -109 89 -5 0
-3 -4 5 -10 18 -11 6 -25 -15 -16 -22 8 -31 36 -14 47 11 7 10 9 -4 9 -10 0
-27 9 -39 20 -17 15 -32 19 -67 16 -30 -2 -49 1 -56 9 -5 8 -19 15 -30 17 -11
2 -22 6 -25 10 -3 3 -16 8 -30 9 -39 3 -106 -2 -92 -8 6 -2 12 -9 12 -14 0 -6
-5 -7 -12 -3 -8 5 -9 2 -5 -9 6 -16 -3 -21 -30 -18 -7 1 -13 -2 -13 -7 0 -4 6
-14 13 -22 10 -12 9 -12 -5 -1 -15 11 -21 11 -35 0 -11 -10 -14 -10 -9 -1 4 6
2 12 -3 12 -15 0 -14 -27 2 -34 9 -5 9 -7 -1 -12 -6 -3 -10 -10 -7 -15 4 -5
-1 -6 -9 -3 -10 4 -16 18 -16 35 0 16 -4 29 -9 29 -4 0 -20 17 -34 38 -13 20
-40 55 -58 76 -19 21 -34 42 -34 47 0 4 -4 11 -9 16 -5 5 -6 3 -2 -4 4 -7 3
-13 -3 -13 -5 0 -11 6 -13 13 -7 20 -121 16 -143 -6 -10 -11 -24 -15 -34 -12
-9 4 -22 9 -28 12 -16 6 -17 -11 -3 -38 8 -13 7 -19 0 -19 -7 0 -7 -7 1 -22 9
-19 9 -21 -2 -11 -14 14 -39 0 -39 -23 0 -7 -6 -17 -13 -21 -8 -4 -19 -17 -25
-28 -6 -11 -12 -14 -12 -7 0 9 -5 10 -19 2 -11 -5 -31 -10 -45 -10 -18 0 -26
-5 -26 -17 0 -12 -3 -14 -8 -6 -10 16 -35 11 -56 -10 -10 -9 -29 -17 -42 -17
-14 0 -23 -4 -20 -8 3 -4 -12 -17 -32 -27 -20 -10 -52 -30 -71 -43 -22 -17
-35 -21 -40 -14 -9 15 -81 -17 -81 -36 0 -11 -3 -12 -13 -3 -8 6 -17 8 -21 4
-10 -11 -36 -12 -36 -2 0 5 -4 9 -10 9 -5 0 -10 -8 -10 -17 0 -15 -1 -15 -14
2 -8 11 -19 16 -30 12 -9 -4 -16 -2 -16 3 0 6 9 10 19 10 11 0 23 5 27 11 4 6
-1 9 -13 7 -11 -2 -28 4 -38 12 -17 14 -17 13 -11 -10 6 -19 5 -22 -3 -10 -10
13 -12 13 -21 0 -5 -8 -10 -10 -10 -4 0 6 7 17 15 24 8 7 15 20 15 29 -1 13
-3 13 -15 -3 -20 -27 -19 -6 1 22 21 31 12 57 -16 42 -25 -13 -27 -32 -2 -23
13 5 14 3 5 -7 -6 -7 -16 -9 -22 -6 -17 11 -13 41 11 81 11 20 17 40 12 43 -9
7 -16 27 -17 50 0 6 -6 12 -14 12 -9 0 -12 -8 -8 -27 4 -19 3 -22 -3 -10 -4
10 -12 18 -17 17 -5 -1 -11 3 -13 9 -2 6 13 17 32 25 20 8 36 17 36 19 0 8
-35 4 -47 -5 -9 -7 -14 -3 -18 14 -4 16 -13 24 -28 24 -26 0 -39 -15 -31 -38
3 -10 1 -18 -5 -18 -25 0 1 83 34 110 8 7 15 17 15 23 0 6 -11 0 -25 -13 -22
-21 -27 -20 -24 8 0 4 6 6 14 4 7 -1 16 7 20 18 4 11 11 17 17 14 7 -5 8 -2 3
6 -4 7 -2 16 5 20 7 4 11 13 8 20 -2 8 -14 -3 -26 -24 -12 -20 -26 -35 -31
-32 -5 3 -14 -1 -21 -9 -16 -19 -30 -19 -30 1 0 8 4 13 9 10 14 -9 22 38 8 49
-6 6 -11 23 -9 38 4 29 -12 58 -32 56 -7 0 -6 -2 2 -6 7 -3 11 -22 10 -51 -1
-44 -2 -44 -5 -9 -4 35 -23 54 -23 22 0 -8 -3 -15 -7 -15 -13 1 -48 30 -36 30
7 0 14 8 16 18 2 9 3 7 2 -5 -1 -13 1 -23 5 -23 11 0 21 30 14 41 -3 5 3 9 13
10 14 0 13 2 -5 10 -15 5 -30 5 -42 -1 -27 -15 -32 -12 -25 10 5 15 1 22 -16
28 -15 6 -18 11 -11 16 7 4 12 14 12 22 0 8 -4 12 -10 9 -5 -3 -10 -1 -10 4 0
6 8 12 18 12 15 1 16 2 0 6 -10 2 -15 10 -11 19 3 7 8 12 12 10 4 -3 12 4 18
14 10 15 9 17 -10 13 -22 -4 -22 -4 -3 11 16 13 17 16 4 16 -8 0 -21 6 -27 14
-9 11 -5 15 20 20 17 3 36 3 41 0 6 -4 8 -1 6 7 -3 9 -17 13 -37 11 -17 -1
-31 2 -31 8 0 10 13 14 37 11 21 -3 24 18 3 29 -11 6 -20 15 -20 20 0 14 72
60 84 53 6 -4 5 -8 -3 -11 -22 -7 -51 -35 -51 -48 0 -9 9 -8 31 3 32 16 54 54
36 64 -6 4 -7 14 -2 25 5 11 9 34 10 53 2 29 0 32 -10 18 -9 -13 -14 -14 -25
-4 -10 10 -12 9 -7 -5 8 -23 -9 -33 -17 -11 -8 20 17 43 46 43 20 0 21 1 12
24 -6 15 -8 15 -19 -1 -12 -15 -13 -15 -21 3 -5 10 -9 28 -8 39 3 58 3 58 19
45 11 -9 12 -17 4 -32 -12 -23 -4 -37 12 -21 20 20 39 4 32 -28 -3 -18 -1 -29
6 -29 6 0 10 5 9 11 -2 6 5 16 16 22 15 10 20 9 23 -2 4 -10 7 -11 13 -1 7 11
14 11 40 0 23 -10 28 -15 18 -22 -10 -8 -10 -11 0 -15 6 -2 12 -11 12 -19 0
-10 -13 -14 -42 -16 -35 -1 -37 -2 -12 -5 27 -4 31 -8 30 -34 -1 -23 -5 -29
-18 -25 -10 2 -18 0 -18 -5 0 -9 10 -10 122 -13 39 -1 64 2 61 8 -4 5 -1 6 6
2 6 -4 19 -2 28 6 11 9 17 10 20 2 4 -13 50 -6 60 9 3 5 7 26 9 45 1 19 9 39
16 43 8 5 9 9 2 9 -6 0 -17 -7 -24 -15 -20 -24 -30 -7 -13 25 8 17 22 30 33
30 24 0 36 18 16 26 -21 8 -9 31 20 37 19 3 28 -3 44 -29 12 -22 27 -34 41
-34 18 0 20 2 8 16 -10 13 -10 17 2 25 21 13 29 11 22 -7 -5 -15 -3 -15 26 0
34 18 51 14 51 -10 0 -11 4 -12 19 -5 10 6 21 8 25 4 3 -3 12 9 20 28 20 48
25 51 60 31 34 -19 47 -32 41 -43 -6 -9 47 -19 98 -19 38 0 39 1 24 18 -27 29
-21 42 17 39 19 -1 32 -5 29 -9 -2 -5 3 -8 12 -8 9 0 13 5 10 10 -3 6 -2 10 3
10 6 0 12 -7 16 -15 3 -8 12 -15 21 -15 14 0 14 -3 2 -27 -8 -16 -17 -48 -21
-73 l-7 -45 39 0 c32 0 42 5 54 26 16 27 12 75 -8 125 -11 27 -77 99 -101 112
-29 15 -113 25 -113 13 0 -6 7 -11 16 -11 21 0 42 -22 49 -52 6 -21 2 -26 -19
-30 -14 -3 -26 -2 -26 1 0 16 -100 41 -163 41 -119 0 -337 -30 -410 -56 -38
-13 -65 -19 -62 -14 4 6 -6 10 -22 11 -15 0 -22 3 -15 6 17 7 15 23 -4 23 -8
0 -13 4 -10 9 3 5 -2 12 -12 16 -15 6 -14 8 8 17 l25 10 -22 9 c-13 4 -23 14
-23 20 0 7 8 9 23 4 12 -4 40 -9 62 -11 l40 -5 -30 17 -29 17 24 9 c24 9 89 6
140 -8 24 -6 121 -14 184 -14 16 0 35 -5 41 -10 13 -11 215 -2 215 9 -1 14
-17 29 -39 36 -18 5 -20 9 -10 16 11 7 9 9 -6 9 -28 1 -53 22 -47 40 3 8 1 12
-3 8 -5 -4 -14 -3 -20 2 -8 7 -43 8 -95 4 -60 -5 -77 -10 -65 -17 9 -5 30 -6
46 -3 16 3 29 1 29 -4 0 -6 -5 -10 -12 -10 -6 0 -9 -3 -5 -6 8 -9 67 18 61 28
-3 4 -1 8 5 8 17 0 24 -22 10 -31 -11 -7 -11 -9 -1 -9 7 0 10 -5 7 -11 -8 -11
-61 -5 -135 15 -25 7 -51 11 -57 9 -8 -3 -13 4 -13 16 0 17 7 21 33 22 31 1
31 1 -7 9 -21 4 -48 5 -59 2 -14 -3 -18 -1 -13 6 4 8 0 12 -11 13 -10 0 -39 4
-65 8 -37 6 -48 5 -48 -6 0 -9 15 -13 50 -13 28 0 50 -4 50 -9 0 -5 8 -12 18
-15 9 -3 -1 -2 -23 1 -22 4 -52 7 -66 7 -14 1 -33 9 -42 18 -10 9 -26 20 -37
23 -11 4 -18 10 -15 15 3 4 -3 14 -12 21 -12 10 -14 10 -9 2 4 -8 2 -13 -6
-13 -7 0 -31 -3 -53 -7 -37 -6 -39 -5 -26 10 7 10 23 17 34 17 11 0 17 3 14 7
-4 3 -2 12 4 20 6 7 10 13 8 13 -22 -3 -100 -29 -89 -30 8 0 2 -7 -15 -15 -16
-7 -25 -14 -20 -14 16 -2 -47 -51 -64 -50 -10 0 -8 4 7 9 19 8 21 13 12 30
-10 19 -19 23 -50 21 -10 0 -11 1 -2 5 14 7 16 54 2 54 -5 0 -10 7 -10 15 0 8
-4 15 -10 15 -5 0 -10 -7 -10 -15 0 -8 -4 -15 -10 -15 -5 0 -10 -7 -10 -15 0
-8 5 -15 10 -15 6 0 10 5 10 10 0 6 5 10 10 10 17 0 11 -28 -7 -39 -16 -9 -16
-12 -3 -21 13 -8 13 -11 1 -19 -8 -5 -12 -18 -8 -30 3 -14 0 -21 -9 -21 -20 0
-17 -30 4 -31 15 -1 15 -2 1 -6 -17 -4 -33 -53 -18 -53 5 0 6 -7 3 -15 -4 -8
-1 -15 6 -15 10 0 10 -3 0 -15 -7 -8 -21 -15 -32 -15 -15 0 -18 -5 -13 -21 9
-26 -1 -66 -18 -72 -6 -2 -1 -2 13 0 24 3 25 2 24 -49 -1 -75 -2 -75 -25 -81
-15 -4 -20 -11 -15 -22 3 -9 2 -14 -3 -10 -5 3 -17 -2 -25 -11 -9 -8 -16 -11
-16 -5 0 5 7 16 15 25 18 17 19 38 4 53 -21 21 -25 87 -15 268 9 179 17 236
33 242 12 5 12 7 1 14 -9 7 -10 11 -2 17 6 4 15 22 19 40 6 30 25 46 25 20 0
-6 7 -3 15 8 19 24 18 31 -1 38 -10 4 -13 2 -8 -6 5 -7 2 -9 -8 -5 -9 3 -21 0
-28 -6 -7 -7 -3 3 9 21 21 29 21 32 4 32 -15 0 -16 2 -3 10 13 9 13 11 0 20
-12 8 -11 10 7 10 16 0 21 4 17 15 -4 8 -1 15 6 15 9 0 11 -12 7 -40 -3 -23
-1 -40 5 -40 5 0 8 19 6 43 -3 37 -6 42 -28 42 -23 0 -25 3 -27 60 -2 70 -8
124 -16 145 -8 21 -4 51 11 78 11 19 10 22 -5 22 -15 0 -15 2 4 15 11 8 23 27
26 42 5 25 28 99 45 143 3 8 6 17 6 20 1 3 15 32 30 65 16 33 30 62 30 65 1 3
7 15 14 28 7 12 9 22 5 22 -4 0 3 7 15 16 12 8 22 21 22 29 0 7 6 20 13 27 6
7 21 30 32 51 11 20 23 37 27 37 5 0 8 11 8 25 0 14 4 24 9 22 5 -1 23 17 40
41 17 23 36 42 41 42 6 0 10 6 10 13 0 7 15 21 33 31 17 11 46 34 62 52 23 25
42 34 80 40 28 4 54 12 58 18 6 7 6 4 3 -8 -4 -13 -2 -17 8 -13 7 3 19 0 26
-6 10 -9 11 -9 6 1 -5 8 3 12 28 12 26 0 36 -4 36 -15 0 -16 26 -16 63 0 9 4
28 5 41 3 17 -3 23 -1 19 8 -4 10 0 11 21 1 14 -7 26 -17 26 -22 0 -6 18 -16
40 -22 46 -12 49 -8 18 18 -29 26 -17 34 21 15 19 -10 32 -12 36 -6 3 6 17 7
31 4 25 -6 35 10 12 19 -7 3 1 6 17 7 28 1 29 2 8 10 -33 14 -28 21 11 16 27
-3 34 -1 29 10 -3 8 -8 12 -12 10 -4 -3 -13 0 -21 5 -11 7 -6 8 15 4 17 -3 49
-7 71 -9 36 -2 40 0 28 12 -8 7 -11 19 -7 25 5 8 9 6 11 -5 4 -21 22 -24 22
-4 0 9 10 13 30 12 17 -1 30 1 30 6 0 4 7 8 15 8 8 0 15 8 15 18 0 9 4 13 8 7
9 -12 32 -18 31 -7 -4 22 4 23 10 2 6 -22 8 -23 14 -7z m387 -53 c-8 -5 -19
-10 -25 -10 -5 0 -3 5 5 10 8 5 20 10 25 10 6 0 3 -5 -5 -10z m-2752 -87 c3
-50 2 -51 -27 -58 -39 -8 -71 2 -73 23 -5 57 22 94 67 90 29 -3 30 -5 33 -55z
m1762 5 c0 -6 -6 -5 -15 2 -8 7 -15 14 -15 16 0 2 7 1 15 -2 8 -4 15 -11 15
-16z m2345 -708 c-3 -5 -10 -10 -16 -10 -5 0 -9 5 -9 10 0 6 7 10 16 10 8 0
12 -4 9 -10z m44 -146 c11 -14 36 -30 56 -35 37 -10 167 -115 185 -149 8 -15
4 -22 -25 -40 -28 -18 -47 -21 -98 -19 -73 4 -87 -3 -87 -40 0 -70 -66 -90
-211 -65 l-99 17 0 68 c0 69 21 138 43 140 6 1 28 0 47 -1 49 -2 70 18 77 70
8 66 18 80 58 80 24 0 39 -7 54 -26z m-3329 -54 c0 -5 -5 -10 -11 -10 -5 0 -7
5 -4 10 3 6 8 10 11 10 2 0 4 -4 4 -10z m157 -42 c-3 -8 -6 -5 -6 6 -1 11 2
17 5 13 3 -3 4 -12 1 -19z m13 -43 c0 -14 -4 -25 -9 -25 -4 0 -6 11 -3 25 2
14 6 25 8 25 2 0 4 -11 4 -25z m3887 10 c19 -8 55 -15 78 -15 47 0 79 -21 90
-59 5 -16 4 -21 -4 -17 -6 4 -11 1 -11 -7 0 -8 -6 -17 -14 -20 -18 -7 -56 3
-56 14 0 5 -12 4 -26 -2 -15 -5 -60 -14 -100 -20 -104 -14 -204 16 -204 61 0
28 48 60 89 61 20 0 45 4 56 9 30 13 62 12 102 -5z m338 -96 c28 -7 54 -8 72
-2 33 11 120 -16 141 -44 22 -31 15 -60 -22 -77 -66 -31 -139 -11 -157 43 -3
9 -21 13 -50 13 -32 -1 -52 5 -66 17 -11 11 -28 21 -38 22 -30 6 -29 27 2 32
53 8 74 7 118 -4z m-687 -276 c6 -19 -35 -16 -42 3 -4 11 0 15 16 12 12 -2 23
-9 26 -15z m-3403 -183 c-3 -5 -11 -10 -16 -10 -6 0 -7 5 -4 10 3 6 11 10 16
10 6 0 7 -4 4 -10z m280 -21 c4 -6 19 -7 36 -4 18 4 29 2 29 -4 0 -6 -7 -8
-15 -5 -11 5 -13 2 -9 -10 6 -16 3 -16 -27 -4 -18 8 -34 19 -37 26 -5 15 14
16 23 1z m-35 -29 c13 -8 13 -10 -2 -10 -9 0 -20 5 -23 10 -8 13 5 13 25 0z
m195 -5 l30 -15 -35 6 c-19 4 -44 10 -55 15 -18 7 -18 8 5 8 14 0 39 -6 55
-14z m-59 -14 c-3 -5 14 -12 39 -15 24 -4 48 -12 51 -18 5 -8 0 -9 -17 -4 -13
4 -46 13 -73 19 -39 8 -46 12 -30 18 26 11 36 11 30 0z m169 -1 c19 -8 19 -9
-2 -9 -12 -1 -25 4 -28 9 -7 12 2 12 30 0z m-320 -10 l20 -9 -20 0 c-11 0 -27
4 -35 9 -13 9 -13 10 0 9 8 0 24 -4 35 -9z m-300 -99 c3 -5 1 -12 -5 -16 -5
-3 -10 1 -10 9 0 18 6 21 15 7z m705 -56 c0 -39 -14 -46 -30 -14 -9 17 -8 23
7 35 24 18 23 19 23 -21z m-643 9 c-3 -3 -12 -4 -19 -1 -8 3 -5 6 6 6 11 1 17
-2 13 -5z m673 -9 c0 -8 -4 -15 -10 -15 -5 0 -10 7 -10 15 0 8 5 15 10 15 6 0
10 -7 10 -15z m-93 -1 c-3 -3 -12 -4 -19 -1 -8 3 -5 6 6 6 11 1 17 -2 13 -5z
m-50 -10 c-3 -3 -12 -4 -19 -1 -8 3 -5 6 6 6 11 1 17 -2 13 -5z m-413 -34 c-7
-7 -19 -7 -35 -1 -23 9 -22 10 11 10 23 1 31 -2 24 -9z m216 -34 c0 -2 -8 -10
-17 -17 -16 -13 -17 -12 -4 4 13 16 21 21 21 13z m707 -38 c-3 -7 -5 -2 -5 12
0 14 2 19 5 13 2 -7 2 -19 0 -25z m-1139 -88 c-12 -19 -28 -27 -28 -14 0 6 30
33 38 34 1 0 -3 -9 -10 -20z m-51 -102 c-3 -8 -6 -5 -6 6 -1 11 2 17 5 13 3
-3 4 -12 1 -19z m2968 2 c44 -11 87 -20 96 -20 9 0 31 -13 48 -29 23 -22 31
-38 31 -65 0 -31 -5 -38 -40 -56 -50 -26 -114 -26 -171 0 -68 32 -74 36 -71
54 2 9 -3 15 -10 14 -8 -2 -14 9 -16 26 -3 25 -1 28 10 18 12 -10 14 -6 10 18
-3 18 0 30 7 30 6 0 11 7 11 15 0 19 -1 19 95 -5z m305 -157 c40 -27 50 -40
50 -62 0 -16 -6 -21 -24 -21 -14 0 -27 4 -30 9 -3 5 -22 12 -41 15 -20 4 -36
13 -36 21 -1 8 -2 21 -3 28 -1 6 -1 15 1 20 7 13 58 7 83 -10z m-3373 -75 c-2
-13 -4 -5 -4 17 -1 22 1 32 4 23 2 -10 2 -28 0 -40z m4263 -223 c14 -7 41 -20
60 -29 114 -52 153 -84 148 -123 -3 -26 -6 -28 -58 -31 -64 -3 -97 12 -125 55
-11 17 -43 42 -73 57 -53 26 -69 45 -59 69 6 17 75 19 107 2z m-2990 -125 c0
-5 -4 -10 -10 -10 -5 0 -10 5 -10 10 0 6 5 10 10 10 6 0 10 -4 10 -10z m-946
-22 c-4 -13 -7 -28 -7 -35 0 -7 -6 -14 -14 -17 -18 -7 -16 10 4 45 21 35 27
37 17 7z m2766 -28 c0 -6 20 -33 45 -59 46 -49 57 -85 33 -109 -7 -7 -41 -12
-84 -12 -86 0 -95 12 -65 83 11 24 21 55 23 68 4 29 48 55 48 29z m-2757 -45
c-3 -9 -8 -14 -10 -11 -3 3 -2 9 2 15 9 16 15 13 8 -4z m4334 -20 c1 -5 -1
-16 -6 -24 -8 -12 -13 -12 -35 3 -15 9 -24 21 -20 27 7 13 56 8 61 -6z m-2750
-30 c8 -23 0 -25 -21 -4 -18 17 -18 19 -2 19 9 0 19 -7 23 -15z m-420 -57 c-3
-8 -6 -5 -6 6 -1 11 2 17 5 13 3 -3 4 -12 1 -19z m-617 -28 c-8 -5 -19 -10
-25 -10 -5 0 -3 5 5 10 8 5 20 10 25 10 6 0 3 -5 -5 -10z m1078 -2 c14 -14 16
-28 2 -28 -5 0 -14 9 -20 20 -12 22 -1 27 18 8z m75 6 c9 -9 -4 -35 -14 -28
-5 3 -9 0 -9 -5 0 -6 5 -11 10 -11 6 0 10 -4 10 -10 0 -5 -7 -10 -15 -10 -8 0
-15 6 -15 14 0 8 -3 22 -6 30 -5 12 -2 15 12 9 12 -4 15 -3 10 5 -7 12 6 17
17 6z m-1659 -29 c-6 -16 -24 -21 -24 -7 0 11 11 22 21 22 5 0 6 -7 3 -15z
m-127 -67 c-3 -8 -6 -5 -6 6 -1 11 2 17 5 13 3 -3 4 -12 1 -19z m1801 -13 c-3
-3 -9 2 -12 12 -6 14 -5 15 5 6 7 -7 10 -15 7 -18z m122 -18 c0 -4 -7 -2 -15
7 -8 8 -15 21 -15 28 1 14 30 -20 30 -35z m-57 12 l22 -21 -23 11 c-12 7 -27
9 -32 6 -6 -3 -7 1 -4 9 8 21 11 20 37 -5z m2025 1 c7 0 20 -16 29 -36 15 -31
15 -36 3 -45 -36 -23 -120 16 -120 55 0 26 20 37 55 30 11 -2 26 -4 33 -4z
m-3501 -22 c-3 -8 -6 -5 -6 6 -1 11 2 17 5 13 3 -3 4 -12 1 -19z m3380 0 c21
-17 15 -37 -19 -58 -36 -22 -71 -20 -100 7 -18 16 -24 54 -10 67 10 11 112 -2
129 -16z m-2097 -18 c0 -5 -4 -10 -10 -10 -5 0 -10 5 -10 10 0 6 5 10 10 10 6
0 10 -4 10 -10z m140 -5 c0 -9 -6 -12 -16 -8 -13 5 -13 7 -2 14 17 11 18 11
18 -6z m-1440 -9 c0 -3 -4 -8 -10 -11 -5 -3 -10 -1 -10 4 0 6 5 11 10 11 6 0
10 -2 10 -4z m1370 -17 c0 -11 -3 -11 -24 -3 -23 9 -20 23 4 17 11 -3 20 -9
20 -14z m440 -19 c12 -9 10 -10 -10 -4 -22 6 -23 5 -11 -10 7 -9 9 -16 4 -16
-6 0 -8 -12 -5 -27 2 -16 2 -26 -1 -23 -3 3 -9 28 -15 57 -10 55 -8 56 38 23z
m98 -16 l2 -29 -14 25 c-19 31 -20 43 -3 38 6 -3 13 -18 15 -34z m-732 -2 c4
-31 16 -62 24 -62 9 0 8 20 -2 36 -4 6 0 11 8 11 8 0 17 -10 20 -23 4 -17 14
-23 45 -26 21 -2 39 0 39 4 0 5 -7 8 -15 8 -16 0 -17 3 -19 49 -1 28 0 28 17
14 9 -9 17 -21 16 -27 0 -6 -3 -6 -6 2 -2 6 -9 9 -15 6 -5 -4 0 -16 13 -30 21
-23 21 -54 -1 -54 -6 0 -8 5 -5 10 4 6 -7 10 -25 10 -17 0 -29 -3 -27 -7 3 -5
-1 -13 -8 -20 -10 -9 -14 -9 -18 0 -3 7 -19 14 -36 15 -23 2 -31 -2 -31 -15 0
-9 3 -13 7 -10 3 4 18 -3 31 -15 l25 -23 -12 23 c-12 22 -11 23 8 12 12 -6 21
-8 21 -4 0 4 9 -1 20 -11 19 -17 20 -17 20 1 0 12 3 15 8 7 5 -7 28 -11 60 -9
59 2 68 -4 52 -34 -6 -12 -9 -29 -7 -38 2 -11 7 -5 14 18 6 19 12 29 12 23 1
-7 11 -13 22 -13 17 0 20 -4 16 -22 -6 -23 -6 -23 10 -3 14 19 15 19 11 -12
-2 -18 -1 -30 4 -27 9 6 10 -4 10 -51 -1 -16 2 -22 4 -12 3 9 10 17 14 17 5 0
7 14 4 30 -5 23 -3 30 10 30 18 0 22 -16 5 -22 -6 -2 -2 -13 10 -27 11 -13 18
-29 14 -35 -3 -6 -3 -8 2 -4 14 13 45 -12 45 -37 0 -18 -4 -23 -16 -18 -13 5
-15 2 -9 -18 4 -13 15 -30 24 -37 10 -8 10 -11 2 -6 -11 5 -13 3 -8 -10 4 -10
3 -15 -3 -11 -6 3 -10 -2 -10 -12 0 -11 -6 -25 -12 -32 -10 -11 -10 -13 0 -7
6 4 12 2 12 -4 0 -8 -9 -10 -26 -6 -14 4 -24 3 -21 -1 8 -13 -12 -55 -23 -48
-5 3 -3 -10 5 -29 19 -45 19 -46 -7 -46 -13 0 -18 -4 -13 -8 10 -7 19 -52 10
-52 -3 0 -10 11 -15 25 -5 14 -15 25 -21 25 -8 0 -8 -4 0 -14 8 -10 9 -16 1
-21 -7 -4 -7 -12 0 -25 5 -10 10 -21 10 -24 0 -12 -23 -6 -34 9 -13 18 -31 8
-40 -22 -5 -16 -2 -23 11 -26 14 -4 14 -5 -4 -6 -14 -1 -28 9 -40 29 -9 17
-25 30 -35 30 -10 0 -18 4 -18 10 0 5 -7 7 -16 3 -11 -4 -15 -15 -11 -36 3
-25 2 -28 -8 -14 -7 10 -15 17 -18 17 -8 0 -1 -68 8 -92 4 -10 3 -18 -3 -18
-5 0 -12 7 -16 15 -10 27 -36 18 -32 -12 2 -16 1 -22 -1 -15 -6 18 -21 15 -26
-5 -4 -14 -5 -12 -6 5 -1 27 -9 28 -28 5 -12 -16 -13 -15 -8 12 l6 30 -15 -30
c-8 -16 -15 -24 -15 -17 -2 26 -31 12 -31 -15 0 -22 -2 -25 -10 -13 -9 13 -11
13 -20 0 -8 -12 -10 -9 -10 12 0 15 -5 30 -11 34 -8 5 -10 -1 -7 -20 3 -14 1
-26 -3 -26 -5 0 -9 9 -9 20 0 21 -24 28 -35 10 -9 -15 -25 -12 -25 5 0 8 -6
15 -13 15 -7 0 -13 9 -14 20 -1 11 2 20 8 20 5 0 9 7 9 16 0 8 -4 13 -9 10 -5
-4 -12 0 -14 6 -3 7 -6 1 -6 -14 -1 -27 -20 -40 -22 -15 -5 55 -3 77 9 72 13
-5 17 10 5 18 -5 2 -2 2 5 1 6 -2 12 2 12 8 0 9 3 9 12 0 10 -10 10 -15 -1
-21 -10 -6 -10 -10 -1 -16 18 -11 23 1 22 47 -1 24 2 38 6 33 6 -10 20 -11 40
-5 4 1 11 2 16 1 5 -1 5 6 1 16 -4 10 -10 27 -12 38 l-5 20 15 -20 c9 -11 17
-26 17 -33 0 -7 5 -10 10 -7 6 3 10 -1 10 -10 0 -9 5 -13 10 -10 6 4 8 11 5
16 -4 5 -1 9 4 9 6 0 11 -4 11 -10 0 -5 7 -7 15 -4 11 4 13 2 9 -9 -4 -11 0
-15 13 -13 10 2 21 -2 25 -8 10 -14 3 47 -6 63 -4 6 -2 11 4 11 7 0 5 8 -4 22
-11 16 -13 25 -4 35 7 9 7 13 -1 13 -6 0 -11 6 -11 14 0 21 -41 68 -55 62 -8
-3 -11 2 -8 15 3 10 1 19 -5 19 -13 0 -26 -55 -17 -70 5 -7 12 -5 20 7 12 16
13 15 8 -10 -3 -17 -1 -27 6 -27 8 0 7 -7 -2 -22 -15 -25 -16 -37 -3 -56 7
-11 4 -12 -11 -3 -14 7 -19 18 -16 33 2 14 -9 44 -27 73 l-30 50 0 -37 c0 -21
-4 -38 -9 -38 -6 0 -7 16 -4 35 6 35 -13 125 -27 125 -3 0 -11 -17 -17 -37
l-10 -38 -11 28 c-6 15 -16 27 -22 27 -5 0 -11 8 -11 18 -1 16 -2 16 -6 -1 -2
-9 -9 -14 -15 -11 -6 4 -8 -1 -4 -13 4 -13 0 -25 -10 -34 -16 -13 -17 -11 -10
14 4 18 3 26 -3 23 -5 -3 -11 -3 -14 1 -2 5 -2 2 -1 -4 5 -18 -6 -16 -23 5
-13 16 -14 15 -8 -5 5 -18 3 -22 -9 -17 -11 4 -19 -2 -26 -20 -18 -48 -55 -24
-52 34 1 15 -1 19 -5 10 -9 -23 -35 -50 -47 -50 -6 0 -3 7 7 14 9 7 17 21 17
30 0 15 -3 14 -22 -4 -12 -11 -28 -20 -35 -20 -7 0 -13 -5 -13 -11 0 -5 5 -7
10 -4 6 4 10 -7 9 -27 0 -18 -3 -26 -6 -18 -2 8 -8 24 -13 35 -20 49 -19 55
13 88 18 17 29 29 23 25 -5 -4 -15 -3 -21 2 -16 13 -49 -35 -42 -61 3 -10 -2
-24 -11 -31 -14 -12 -15 -8 -9 35 4 26 4 47 1 47 -13 0 -32 -28 -31 -46 1 -10
-4 -18 -10 -16 -7 1 -13 -4 -13 -12 0 -8 -6 -18 -12 -22 -7 -4 -10 -4 -6 1 10
11 -29 38 -42 30 -6 -4 -7 1 -3 11 4 11 2 15 -4 11 -6 -4 -8 3 -5 18 2 14 11
25 18 25 8 0 14 10 14 23 0 12 9 28 20 35 18 11 20 10 20 -10 1 -20 2 -21 11
-6 7 13 5 27 -7 50 -13 24 -14 33 -4 36 9 3 9 7 -1 14 -11 8 -11 9 1 5 9 -2
14 -13 12 -27 -4 -21 -2 -22 12 -7 9 8 16 22 16 30 0 10 8 13 25 9 14 -2 25
-8 25 -12 0 -4 17 -10 38 -13 20 -3 49 -9 65 -12 24 -6 27 -4 28 16 0 13 3 18
6 12 3 -9 10 -10 24 -3 15 9 19 7 19 -7 1 -11 7 -4 18 17 13 27 23 36 45 36
92 4 120 7 92 11 -75 9 -101 16 -80 22 17 5 19 12 14 51 l-6 45 -1 -42 c-2
-29 -6 -43 -16 -43 -20 0 -26 24 -16 62 9 30 14 33 50 35 27 2 39 -1 34 -8 -8
-13 28 -8 38 6 10 13 30 14 46 1 9 -7 16 -6 21 3 6 10 14 7 30 -11 16 -16 20
-18 16 -5 -4 9 -3 17 3 17 6 0 12 -6 14 -12 3 -9 9 -8 22 5 21 21 25 21 48 0
17 -15 18 -15 18 12 0 30 12 28 16 -3z m274 18 c0 -5 -2 -10 -4 -10 -3 0 -8 5
-11 10 -3 6 -1 10 4 10 6 0 11 -4 11 -10z m304 -5 c3 -8 1 -15 -4 -15 -6 0
-10 7 -10 15 0 8 2 15 4 15 2 0 6 -7 10 -15z m-207 -21 c-3 -3 -12 -4 -19 -1
-8 3 -5 6 6 6 11 1 17 -2 13 -5z m78 -4 c3 -5 1 -10 -4 -10 -6 0 -11 5 -11 10
0 6 2 10 4 10 3 0 8 -4 11 -10z m-220 -28 c-3 -3 -11 0 -18 7 -9 10 -8 11 6 5
10 -3 15 -9 12 -12z m94 5 c-15 -11 -12 -15 22 -31 40 -19 51 -36 25 -36 -8 0
-21 9 -29 20 -8 11 -17 17 -20 14 -4 -4 -13 -1 -22 6 -18 15 -3 40 24 40 15
-1 15 -2 0 -13z m501 3 c0 -5 -2 -10 -4 -10 -3 0 -8 5 -11 10 -3 6 -1 10 4 10
6 0 11 -4 11 -10z m-157 -30 c3 -14 1 -20 -6 -17 -7 2 -14 14 -15 26 -4 28 13
20 21 -9z m-370 -44 c6 -49 -10 -46 -18 4 -5 28 -12 40 -23 40 -14 0 -14 2 -3
9 20 13 40 -10 44 -53z m-68 44 c-3 -5 -12 -10 -18 -10 -7 0 -6 4 3 10 19 12
23 12 15 0z m615 -11 c0 -6 -4 -7 -10 -4 -5 3 -10 11 -10 16 0 6 5 7 10 4 6
-3 10 -11 10 -16z m-1267 -19 c3 -11 1 -18 -4 -14 -5 3 -9 12 -9 20 0 20 7 17
13 -6z m886 -22 c21 -56 21 -65 6 -65 -10 0 -13 6 -10 17 3 10 1 29 -4 44 -6
14 -8 26 -6 26 3 0 9 -10 14 -22z m241 -4 c0 -14 -4 -23 -9 -20 -5 3 -7 15 -4
26 7 28 13 25 13 -6z m1320 -4 c0 -25 -4 -30 -25 -30 -29 0 -32 12 -8 40 24
28 33 25 33 -10z m-1600 -40 c4 -3 10 -18 13 -35 4 -16 9 -41 12 -55 4 -14 -4
-2 -16 25 -13 28 -25 52 -29 55 -3 3 -6 16 -7 30 -3 24 -2 24 9 5 6 -11 14
-22 18 -25z m14 24 c4 -10 1 -14 -6 -12 -15 5 -23 28 -10 28 5 0 13 -7 16 -16z
m-3691 -38 c29 -44 -4 -85 -60 -74 -13 3 -18 12 -16 36 2 61 47 83 76 38z
m2857 8 c0 -8 -4 -12 -10 -9 -5 3 -10 10 -10 16 0 5 5 9 10 9 6 0 10 -7 10
-16z m700 6 c0 -5 -4 -10 -10 -10 -5 0 -10 5 -10 10 0 6 5 10 10 10 6 0 10 -4
10 -10z m-2300 -39 c3 -3 14 -11 24 -17 35 -19 27 -30 -34 -43 -33 -8 -71 -22
-84 -32 -28 -22 -40 -24 -33 -6 2 6 -5 27 -16 46 l-20 34 24 18 c13 10 33 20
44 21 22 4 87 -10 95 -21z m2366 21 c6 -4 8 -16 4 -26 -7 -20 -12 -16 -23 17
-7 18 1 22 19 9z m1005 -2 c5 0 9 -7 9 -15 0 -19 -14 -19 -30 0 -7 8 -17 12
-23 8 -6 -4 -7 -1 -3 6 5 7 15 10 23 7 8 -3 19 -6 24 -6z m-2074 -22 c-3 -8
-6 -5 -6 6 -1 11 2 17 5 13 3 -3 4 -12 1 -19z m1222 -15 c4 -3 -28 2 -47 6 -2
1 0 6 3 11 5 8 12 7 23 -2 10 -7 19 -14 21 -15z m-2415 1 c22 -9 10 -24 -20
-24 -15 0 -24 6 -24 15 0 16 17 19 44 9z m2274 -35 c-20 -13 -28 -11 -22 5 3
8 12 12 21 9 12 -5 12 -7 1 -14z m-1108 4 c0 -5 -7 -17 -15 -27 -15 -20 -15
-20 -15 0 0 12 3 24 7 27 9 9 23 9 23 0z m1976 -24 c19 -11 34 -27 34 -35 0
-8 10 -14 23 -14 114 -3 145 -8 175 -30 17 -12 33 -34 37 -47 4 -18 10 -23 25
-18 21 7 40 -19 40 -55 0 -16 5 -20 15 -16 9 3 15 0 15 -9 0 -24 -36 -17 -54
10 -20 31 -20 36 2 28 14 -5 13 -3 -3 10 -14 11 -24 12 -32 5 -9 -7 -17 -7
-25 0 -15 11 -130 42 -160 42 -16 0 -18 3 -9 13 13 17 -4 37 -32 37 -10 0 -27
5 -37 10 -16 9 -18 8 -13 -7 5 -13 3 -15 -13 -8 -10 4 -30 10 -44 13 -33 6
-17 -10 23 -24 18 -7 31 -17 29 -24 -1 -6 2 -9 7 -6 5 3 19 -2 31 -12 20 -16
21 -19 7 -25 -10 -4 -17 -2 -17 3 0 5 -9 12 -21 15 -29 9 -90 65 -83 76 3 5
-3 9 -13 9 -22 0 -50 17 -41 25 3 3 23 -1 43 -10 50 -20 55 -13 10 13 -34 21
-50 50 -20 38 8 -3 15 -1 15 4 0 17 52 11 86 -11z m-3596 -9 c0 -16 7 -20 38
-21 20 0 30 -3 22 -6 -8 -3 -34 -14 -57 -24 -23 -11 -48 -19 -55 -18 -10 0
-10 2 0 6 6 2 12 15 12 28 0 34 10 55 26 55 8 0 14 -9 14 -20z m2840 -10 c0
-5 -2 -10 -4 -10 -3 0 -8 5 -11 10 -3 6 -1 10 4 10 6 0 11 -4 11 -10z m-1220
-126 c0 -8 -19 -13 -24 -6 -3 5 1 9 9 9 8 0 15 -2 15 -3z m360 -2 c0 -5 -7
-17 -16 -28 -8 -10 -14 -14 -11 -9 2 6 7 18 10 28 7 17 17 23 17 9z m1807 -19
c50 -17 69 -33 40 -33 -15 0 -117 49 -103 49 5 1 33 -7 63 -16z m-2107 -28 c0
-15 -6 -25 -14 -25 -11 0 -12 5 -3 25 15 31 17 31 17 0z m30 -5 c0 -5 -5 -10
-11 -10 -5 0 -7 5 -4 10 3 6 8 10 11 10 2 0 4 -4 4 -10z m1947 -12 c-3 -8 -6
-5 -6 6 -1 11 2 17 5 13 3 -3 4 -12 1 -19z m-1733 -3 c3 -8 1 -15 -4 -15 -6 0
-10 7 -10 15 0 8 2 15 4 15 2 0 6 -7 10 -15z m360 -67 c-3 -4 -13 -8 -22 -7
-11 0 -12 3 -4 6 6 2 12 19 13 36 l1 32 8 -29 c5 -16 7 -33 4 -38z m-591 -18
c-3 -11 -9 -18 -13 -15 -5 3 -6 14 -3 25 3 11 9 18 13 15 5 -3 6 -14 3 -25z
m598 -39 c18 -17 31 -32 28 -35 -3 -3 -21 10 -39 29 -41 43 -35 46 11 6z
m-217 -26 c-4 -8 -8 -15 -10 -15 -2 0 -4 7 -4 15 0 8 4 15 10 15 5 0 7 -7 4
-15z m-61 -18 c3 -8 -1 -14 -8 -14 -7 0 -11 6 -8 14 3 7 6 13 8 13 2 0 5 -6 8
-13z m35 -22 c-3 -3 -9 2 -12 12 -6 14 -5 15 5 6 7 -7 10 -15 7 -18z m-2804 0
c-4 -8 -13 -15 -20 -15 -12 0 -12 3 -2 15 17 19 29 19 22 0z m2627 -38 c-10
-9 -11 -8 -5 6 3 10 9 15 12 12 3 -3 0 -11 -7 -18z m139 -38 c0 -5 -5 -8 -11
-6 -6 1 -14 -4 -17 -12 -2 -8 0 -11 6 -7 6 3 13 2 17 -4 3 -5 -1 -10 -9 -10
-9 0 -16 -7 -16 -16 0 -9 -6 -14 -12 -11 -7 2 -12 13 -11 24 1 12 -7 25 -20
32 -14 7 -15 10 -4 6 21 -6 55 21 35 27 -7 3 -8 9 -3 18 6 10 12 8 27 -9 10
-13 18 -27 18 -32z m485 9 c8 -18 14 -27 15 -20 0 19 17 6 23 -18 8 -31 -8
-32 -37 -3 -20 19 -23 28 -14 34 9 6 8 10 -5 15 -19 7 -23 24 -7 24 6 0 17
-15 25 -32z m1946 -5 c13 -16 12 -17 -3 -5 -9 8 -23 10 -29 6 -8 -4 -9 -3 -5
4 10 17 21 15 37 -5z m24 -43 c11 -10 49 -33 84 -51 36 -18 59 -35 52 -37 -22
-7 -92 20 -102 40 -6 10 -15 16 -22 12 -7 -4 -9 -4 -5 0 3 4 -8 21 -25 38 -33
30 -18 29 18 -2z m-2522 -33 c-8 -13 -23 3 -23 26 0 20 0 20 14 2 8 -11 12
-23 9 -28z m550 3 c3 -11 1 -18 -4 -14 -5 3 -9 12 -9 20 0 20 7 17 13 -6z
m124 14 c-3 -3 -12 -4 -19 -1 -8 3 -5 6 6 6 11 1 17 -2 13 -5z m-600 -26 c-3
-8 -6 -5 -6 6 -1 11 2 17 5 13 3 -3 4 -12 1 -19z m61 -6 c5 -31 -15 -27 -21 3
-3 16 0 24 7 22 6 -2 12 -13 14 -25z m-168 -1 c-13 -26 5 -38 20 -14 9 16 10
15 5 -5 -4 -13 -1 -30 7 -40 10 -14 8 -13 -9 1 -12 11 -27 16 -32 12 -12 -7
-14 9 -5 43 4 12 10 22 16 22 5 0 4 -8 -2 -19z m-67 -16 c-3 -9 -8 -14 -10
-11 -3 3 -2 9 2 15 9 16 15 13 8 -4z m194 -17 c-3 -7 -5 -2 -5 12 0 14 2 19 5
13 2 -7 2 -19 0 -25z m143 12 c0 -5 -2 -10 -4 -10 -3 0 -8 5 -11 10 -3 6 -1
10 4 10 6 0 11 -4 11 -10z m163 -20 c3 -11 1 -18 -4 -14 -5 3 -9 12 -9 20 0
20 7 17 13 -6z m-186 -32 c2 -24 0 -29 -7 -18 -11 17 -14 67 -3 57 3 -4 8 -22
10 -39z m146 27 c-3 -9 -8 -14 -10 -11 -3 3 -2 9 2 15 9 16 15 13 8 -4z m-306
-17 c-3 -8 -6 -5 -6 6 -1 11 2 17 5 13 3 -3 4 -12 1 -19z m191 -24 c-3 -14 -5
-12 -10 9 -3 19 -2 25 4 19 6 -6 8 -18 6 -28z m231 2 c10 -12 9 -14 -6 -10
-11 3 -25 14 -31 25 -12 18 -11 19 6 10 10 -5 24 -17 31 -25z m-176 4 c3 -11
1 -20 -4 -20 -5 0 -9 9 -9 20 0 11 2 20 4 20 2 0 6 -9 9 -20z m-446 -32 c-3
-7 -5 -2 -5 12 0 14 2 19 5 13 2 -7 2 -19 0 -25z m550 10 c-3 -8 -6 -5 -6 6
-1 11 2 17 5 13 3 -3 4 -12 1 -19z m2463 -18 c0 -5 -2 -10 -4 -10 -3 0 -8 5
-11 10 -3 6 -1 10 4 10 6 0 11 -4 11 -10z m90 -41 c22 -12 40 -25 40 -31 0 -5
8 -8 18 -5 9 2 30 -3 45 -10 15 -8 33 -11 39 -7 6 4 8 3 5 -3 -8 -13 34 -30
96 -39 48 -6 61 -19 30 -31 -9 -4 -19 -1 -21 5 -2 7 -13 12 -25 11 -21 0 -21
-1 -2 -9 18 -8 18 -9 -5 -8 -38 0 -75 14 -73 26 2 6 -4 9 -12 6 -9 -4 -23 0
-33 7 -15 13 -16 12 -4 -2 7 -9 27 -23 44 -30 45 -18 71 -48 72 -80 1 -26 0
-27 -16 -9 -10 10 -39 33 -65 51 -27 18 -49 36 -51 41 -2 4 -15 8 -28 8 -15 0
-24 6 -24 15 0 8 -9 24 -20 35 -11 11 -20 23 -20 27 0 4 -12 17 -27 30 -35 28
-16 29 37 2z m364 -94 c3 -8 1 -15 -4 -15 -6 0 -10 7 -10 15 0 8 2 15 4 15 2
0 6 -7 10 -15z m-36 -16 c-2 -6 -8 -10 -13 -10 -5 0 -11 4 -13 10 -2 6 4 11
13 11 9 0 15 -5 13 -11z m-168 -99 c0 -5 -2 -10 -4 -10 -3 0 -8 5 -11 10 -3 6
-1 10 4 10 6 0 11 -4 11 -10z m-3335 -230 c3 -6 -1 -7 -9 -4 -18 7 -21 14 -7
14 6 0 13 -4 16 -10z m-18 -16 c-3 -3 -12 -4 -19 -1 -8 3 -5 6 6 6 11 1 17 -2
13 -5z m697 -3 c9 -14 -16 -65 -41 -85 -15 -11 -42 -19 -64 -19 -22 0 -39 -4
-39 -9 0 -5 -4 -7 -9 -4 -5 3 -11 -1 -15 -9 -9 -25 -28 -18 -20 8 l7 22 -19
-23 c-24 -29 -114 -39 -114 -13 0 13 -2 13 -9 3 -6 -10 -10 -8 -14 10 -7 23
13 48 37 48 6 0 4 -5 -4 -10 -8 -5 -10 -10 -5 -10 21 0 37 18 30 31 -5 8 1 6
13 -4 20 -19 21 -18 15 4 -5 18 -3 21 11 16 10 -4 24 -7 32 -7 8 0 14 -7 14
-15 0 -8 9 -15 20 -15 14 0 18 5 13 17 -4 9 -2 14 4 10 5 -3 17 3 26 13 9 11
23 17 30 14 8 -3 17 2 20 10 4 9 13 13 21 10 8 -3 17 -1 21 5 7 13 32 14 39 2z
m-694 -21 c0 -5 -5 -10 -11 -10 -5 0 -7 5 -4 10 3 6 8 10 11 10 2 0 4 -4 4
-10z m78 -3 c-7 -8 -22 -12 -33 -9 -18 5 -18 6 5 13 38 11 42 10 28 -4z m-18
-31 c0 -2 -7 -7 -16 -10 -8 -3 -12 -2 -9 4 6 10 25 14 25 6z m233 -31 c-3 -9
-8 -14 -10 -11 -3 3 -2 9 2 15 9 16 15 13 8 -4z m37 -1 c0 -8 -5 -12 -10 -9
-6 4 -8 11 -5 16 9 14 15 11 15 -7z m-73 -16 c-3 -8 -6 -5 -6 6 -1 11 2 17 5
13 3 -3 4 -12 1 -19z m274 -549 c-5 -13 -10 -19 -10 -12 -1 15 10 45 15 40 3
-2 0 -15 -5 -28z m-59 -156 c-22 -59 -44 -119 -48 -133 -8 -30 -44 -99 -44
-86 0 12 57 171 75 211 8 17 22 51 31 78 9 26 19 45 21 43 3 -3 -13 -53 -35
-113z"/>
<path d="M2550 5700 c19 -13 30 -13 30 0 0 6 -10 10 -22 10 -19 0 -20 -2 -8
-10z"/>
<path d="M1950 4569 c0 -5 5 -7 10 -4 6 3 10 8 10 11 0 2 -4 4 -10 4 -5 0 -10
-5 -10 -11z"/>
<path d="M1981 4530 c-2 -19 -5 -29 -8 -22 -2 6 -9 10 -14 7 -9 -6 18 -55 31
-55 4 0 10 11 12 25 3 14 2 25 -3 25 -4 0 -10 12 -12 28 -4 24 -4 23 -6 -8z"/>
<path d="M1960 4380 c0 -5 5 -10 10 -10 6 0 10 5 10 10 0 6 -4 10 -10 10 -5 0
-10 -4 -10 -10z"/>
<path d="M3934 4318 c-5 -7 -19 -22 -32 -32 -19 -17 -22 -17 -16 -3 8 22 -9
22 -29 -1 -22 -24 -21 -33 1 -25 9 3 -3 -10 -28 -29 -50 -40 -68 -43 -24 -4
16 13 26 28 22 32 -4 4 -18 -5 -30 -21 -11 -15 -35 -33 -52 -41 l-31 -13 38
-1 c24 0 49 8 64 20 28 22 53 28 31 8 -23 -21 -57 -38 -76 -38 -10 0 -28 -9
-40 -20 -23 -22 -29 -40 -12 -40 6 0 10 4 10 10 0 5 10 15 23 21 l22 12 -23
-25 c-12 -13 -19 -28 -15 -31 3 -4 -3 -7 -15 -7 -11 0 -23 -4 -26 -9 -9 -13
21 -21 47 -13 12 5 43 8 69 7 26 0 43 2 37 5 -5 4 15 7 44 8 30 1 74 6 98 11
30 7 47 7 57 -1 9 -8 16 -8 24 0 7 7 17 12 22 12 6 0 4 -4 -4 -10 -10 -6 0 -7
30 -5 91 9 141 18 131 24 -8 5 74 6 89 1 3 -1 -13 -7 -35 -15 -31 -10 -34 -13
-15 -13 14 0 45 3 70 7 35 7 38 9 16 10 -23 1 -27 4 -19 12 9 9 19 7 40 -7 31
-20 83 -25 83 -8 0 21 -26 33 -86 39 -63 7 -81 16 -69 35 5 9 27 11 72 7 53
-4 62 -3 52 9 -6 8 -15 14 -20 14 -4 0 -21 12 -36 27 -27 25 -27 26 -5 20 20
-5 22 -3 10 11 -7 9 -13 19 -14 20 -13 22 -184 21 -184 0 0 -6 11 -8 28 -3 51
13 98 17 84 7 -10 -7 -5 -13 18 -24 l32 -15 -26 -5 c-28 -6 -45 7 -24 15 7 3
-9 5 -37 5 -46 0 -48 -1 -23 -11 26 -10 44 -34 33 -45 -3 -3 -21 2 -40 11 -20
9 -45 17 -55 17 -20 0 -28 3 -87 34 -18 9 -33 15 -33 12 0 -3 -15 1 -34 9 -18
8 -36 11 -40 8 -3 -4 -6 -1 -6 6 0 7 -6 11 -14 8 -7 -3 -18 -1 -24 5 -7 7 -13
6 -18 -4z m133 -74 c-3 -3 -12 -4 -19 -1 -8 3 -5 6 6 6 11 1 17 -2 13 -5z
m323 -24 c12 -8 12 -10 -5 -9 -11 0 -29 4 -40 9 -18 8 -18 9 5 9 14 0 32 -4
40 -9z m-200 -40 c0 -5 -12 -10 -27 -9 -25 0 -26 1 -8 9 27 12 35 12 35 0z
m-127 -7 c-7 -2 -19 -2 -25 0 -7 3 -2 5 12 5 14 0 19 -2 13 -5z m60 0 c-7 -2
-21 -2 -30 0 -10 3 -4 5 12 5 17 0 24 -2 18 -5z"/>
<path d="M3821 4291 c-12 -12 -25 -21 -30 -21 -5 0 -12 -7 -15 -15 -5 -14 -1
-13 25 2 35 21 54 41 46 49 -3 3 -15 -4 -26 -15z"/>
<path d="M2030 4280 c-23 -7 -23 -8 -3 -9 12 -1 25 4 28 9 3 6 5 10 3 9 -2 -1
-14 -5 -28 -9z"/>
<path d="M4158 4273 c7 -3 16 -2 19 1 4 3 -2 6 -13 5 -11 0 -14 -3 -6 -6z"/>
<path d="M2568 4183 c6 -2 18 -2 25 0 6 3 1 5 -13 5 -14 0 -19 -2 -12 -5z"/>
<path d="M2705 4180 c3 -5 23 -10 43 -9 33 1 34 2 12 9 -36 12 -62 12 -55 0z"/>
<path d="M4320 4080 c-12 -8 -10 -10 10 -10 43 0 74 -12 58 -21 -7 -5 -24 -9
-37 -9 -46 0 -13 -11 57 -18 67 -8 71 -7 81 14 8 19 6 24 -17 33 -41 16 -135
23 -152 11z"/>
<path d="M2248 4003 c7 -3 16 -2 19 1 4 3 -2 6 -13 5 -11 0 -14 -3 -6 -6z"/>
<path d="M3548 3982 c-21 -15 -24 -21 -16 -45 8 -21 18 -28 49 -33 34 -6 37
-8 28 -26 -8 -15 -7 -24 7 -39 9 -10 23 -19 31 -19 16 0 17 -16 2 -26 -6 -3
-9 -17 -6 -30 2 -13 0 -24 -4 -24 -5 0 -9 -5 -9 -11 0 -7 9 -9 21 -6 20 5 65
-16 80 -37 4 -5 12 -5 18 -2 6 4 11 4 11 -1 0 -4 18 -8 40 -8 43 0 47 4 28 24
-11 11 -10 13 4 8 28 -10 11 17 -24 38 -29 17 -30 19 -12 26 10 4 13 8 6 8 -7
1 -10 6 -7 11 3 6 -3 10 -14 10 -12 0 -21 5 -21 10 0 6 14 10 31 10 24 0 30
-4 25 -15 -3 -9 0 -15 8 -15 8 0 16 -6 19 -12 3 -10 9 -10 26 0 16 9 27 10 42
1 17 -9 20 -8 17 3 -6 18 -46 22 -65 6 -15 -11 -16 -11 -10 5 3 9 2 17 -3 17
-6 0 -10 8 -9 18 0 9 2 13 5 7 2 -5 28 -10 57 -9 28 0 56 -1 61 -4 4 -2 31 -6
60 -8 28 -3 58 -7 68 -10 9 -2 19 0 23 6 4 6 -7 10 -27 11 l-33 1 28 10 c21 7
32 7 40 -1 6 -6 22 -11 35 -11 15 0 26 -7 29 -20 6 -24 29 -26 41 -4 8 14 11
14 23 1 26 -26 57 -30 68 -9 9 16 6 18 -20 14 -28 -4 -40 10 -19 23 16 10 12
19 -19 51 -39 40 -77 50 -268 74 -206 26 -277 26 -326 0 -20 -11 -39 -20 -42
-20 -3 0 -5 9 -5 20 0 11 -4 20 -9 20 -5 0 -16 6 -24 14 -12 12 -17 12 -39 -2z
m412 -62 c0 -10 -3 -26 -6 -35 -6 -14 -10 -12 -25 12 -24 36 -24 38 6 39 18 1
25 -3 25 -16z m-360 0 c0 -5 -2 -10 -4 -10 -3 0 -8 5 -11 10 -3 6 -1 10 4 10
6 0 11 -4 11 -10z m199 -20 c11 -34 4 -37 -47 -19 -18 6 -29 15 -26 21 3 5 12
7 20 4 8 -3 17 1 20 9 9 23 21 18 33 -15z m82 20 c9 13 10 13 6 0 -6 -22 -37
-25 -37 -3 0 15 2 16 10 3 9 -13 11 -13 21 0z m196 -22 c37 -14 41 -23 15 -37
-30 -16 -92 -24 -92 -12 0 6 4 11 9 11 5 0 12 11 15 25 7 29 8 29 53 13z
m-177 -18 c0 -5 -5 -10 -11 -10 -5 0 -7 5 -4 10 3 6 8 10 11 10 2 0 4 -4 4
-10z"/>
<path d="M4353 3993 c9 -2 23 -2 30 0 6 3 -1 5 -18 5 -16 0 -22 -2 -12 -5z"/>
<path d="M4420 3990 c0 -5 19 -10 43 -9 36 1 38 2 17 9 -36 12 -60 12 -60 0z"/>
<path d="M4420 3954 c-29 -11 -31 -13 -10 -12 14 0 39 3 55 7 25 6 27 8 10 12
-11 3 -36 -1 -55 -7z"/>
<path d="M4445 3920 c-28 -7 -27 -8 13 -9 23 0 42 4 42 9 0 11 -11 11 -55 0z"/>
<path d="M1840 3892 c0 -6 6 -13 13 -15 9 -4 8 -8 -3 -16 -12 -9 -9 -11 14
-11 27 0 28 1 14 22 -16 24 -38 35 -38 20z"/>
<path d="M2570 3874 c-22 -12 -22 -14 -5 -14 24 0 51 16 39 22 -5 3 -20 -1
-34 -8z"/>
<path d="M3950 3780 c0 -5 5 -10 10 -10 6 0 10 5 10 10 0 6 -4 10 -10 10 -5 0
-10 -4 -10 -10z"/>
<path d="M2000 3750 c0 -5 9 -10 21 -10 11 0 17 5 14 10 -3 6 -13 10 -21 10
-8 0 -14 -4 -14 -10z"/>
<path d="M2391 3748 c-1 -9 -4 -25 -7 -35 -5 -15 -4 -15 5 -3 9 12 11 13 11 1
0 -8 2 -12 5 -10 2 3 0 18 -4 35 -5 16 -10 21 -10 12z"/>
<path d="M3020 3736 c0 -8 4 -17 9 -20 10 -7 23 19 14 28 -11 11 -23 6 -23 -8z"/>
<path d="M3070 3720 c0 -24 15 -27 24 -4 9 22 8 24 -9 24 -8 0 -15 -9 -15 -20z"/>
<path d="M1990 3711 c0 -6 4 -12 8 -15 5 -3 9 1 9 9 0 8 -4 15 -9 15 -4 0 -8
-4 -8 -9z"/>
<path d="M1995 3670 c3 -5 8 -10 11 -10 2 0 4 5 4 10 0 6 -5 10 -11 10 -5 0
-7 -4 -4 -10z"/>
<path d="M1930 3620 c-8 -5 -11 -12 -8 -16 4 -3 14 1 23 10 18 17 9 21 -15 6z"/>
<path d="M1928 3583 c7 -3 16 -2 19 1 4 3 -2 6 -13 5 -11 0 -14 -3 -6 -6z"/>
<path d="M1920 3530 c-13 -8 -12 -10 3 -10 9 0 17 5 17 10 0 12 -1 12 -20 0z"/>
<path d="M1916 3484 c-5 -14 -4 -15 9 -4 17 14 19 20 6 20 -5 0 -12 -7 -15
-16z"/>
<path d="M3090 3450 c0 -5 5 -10 10 -10 6 0 10 5 10 10 0 6 -4 10 -10 10 -5 0
-10 -4 -10 -10z"/>
<path d="M1940 3446 c0 -2 7 -9 15 -16 13 -11 14 -10 9 4 -5 14 -24 23 -24 12z"/>
<path d="M1910 3420 c0 -12 4 -18 10 -15 6 4 17 1 25 -5 8 -6 22 -10 32 -7 15
4 15 5 -3 6 -11 0 -30 10 -42 21 l-22 21 0 -21z"/>
<path d="M2990 3427 c-33 -16 -105 -157 -113 -222 l-6 -50 26 55 c32 67 59
104 67 91 3 -5 3 -16 0 -25 -4 -11 1 -15 23 -13 25 2 30 8 45 62 14 49 15 65
5 88 -14 31 -14 31 -47 14z"/>
<path d="M1900 3376 c4 -4 16 -4 26 2 16 9 14 10 -8 9 -15 -1 -23 -6 -18 -11z"/>
<path d="M1943 3373 c-23 -9 -14 -23 15 -22 17 1 20 3 9 6 -9 2 -15 9 -12 14
7 10 6 10 -12 2z"/>
<path d="M2008 3271 c5 -56 9 -60 13 -14 3 25 0 44 -6 47 -7 2 -9 -10 -7 -33z"/>
<path d="M2045 3301 c-3 -5 -1 -12 5 -16 5 -3 10 1 10 9 0 18 -6 21 -15 7z"/>
<path d="M2037 3226 c-4 -10 -5 -21 -2 -24 9 -9 17 6 13 25 -3 17 -4 17 -11
-1z"/>
<path d="M2075 3110 c-10 -11 -16 -22 -13 -25 3 -3 13 4 23 15 10 11 16 22 13
25 -3 3 -13 -4 -23 -15z"/>
<path d="M3070 3118 c0 -18 18 -34 28 -24 3 4 -2 14 -11 23 -16 16 -17 16 -17
1z"/>
<path d="M2108 3078 c-7 -16 18 -35 30 -23 3 3 0 5 -6 5 -6 0 -12 8 -14 18 -3
15 -4 16 -10 0z"/>
<path d="M3493 3079 c-18 -5 -33 -12 -33 -14 0 -4 77 -1 130 5 3 0 -2 5 -10
10 -18 12 -44 11 -87 -1z"/>
<path d="M4511 3087 c2 -1 15 -11 28 -22 l24 -20 -12 23 c-6 12 -19 22 -28 22
-9 0 -14 -1 -12 -3z"/>
<path d="M4476 2917 c3 -10 9 -15 12 -12 3 3 0 11 -7 18 -10 9 -11 8 -5 -6z"/>
<path d="M3740 2886 c0 -2 7 -6 15 -10 8 -3 15 -1 15 4 0 6 -7 10 -15 10 -8 0
-15 -2 -15 -4z"/>
<path d="M3795 2850 c3 -5 11 -10 16 -10 6 0 7 5 4 10 -3 6 -11 10 -16 10 -6
0 -7 -4 -4 -10z"/>
<path d="M4396 2851 c-4 -5 -2 -12 4 -16 5 -3 10 -15 10 -26 0 -10 4 -19 9
-19 6 0 6 13 -1 33 -13 39 -14 41 -22 28z"/>
<path d="M4427 2839 c4 -13 8 -18 11 -10 2 7 -1 18 -6 23 -8 8 -9 4 -5 -13z"/>
<path d="M3917 2825 c10 -13 24 -27 31 -30 8 -3 3 8 -10 24 -28 36 -46 41 -21
6z"/>
<path d="M3526 2557 c3 -10 9 -15 12 -12 3 3 0 11 -7 18 -10 9 -11 8 -5 -6z"/>
<path d="M3475 2518 c-16 -5 -41 -11 -55 -14 -34 -7 -35 -11 -5 -16 14 -3 25
-2 25 3 0 4 14 3 32 -2 36 -10 41 -8 36 18 -3 17 -7 18 -33 11z"/>
<path d="M2925 2340 c-3 -5 -1 -10 4 -10 6 0 11 5 11 10 0 6 -2 10 -4 10 -3 0
-8 -4 -11 -10z"/>
<path d="M3870 2281 c0 -5 7 -12 16 -15 14 -5 15 -4 4 9 -14 17 -20 19 -20 6z"/>
<path d="M3925 2270 c3 -5 1 -10 -4 -10 -6 0 -11 -10 -11 -22 1 -23 1 -23 15
2 17 30 18 40 4 40 -5 0 -7 -4 -4 -10z"/>
<path d="M2848 2253 c6 -2 12 -9 12 -15 0 -6 -7 -8 -15 -4 -18 6 -20 -5 -3
-22 9 -9 14 -7 24 6 13 18 2 43 -20 41 -7 0 -6 -2 2 -6z"/>
<path d="M3374 2219 c-4 -7 -3 -14 4 -17 7 -2 12 -11 12 -19 0 -13 -3 -13 -15
-3 -12 10 -15 10 -15 -4 0 -9 5 -16 10 -16 6 0 10 -7 10 -15 0 -24 20 -17 22
8 3 55 -12 92 -28 66z"/>
<path d="M3426 2217 c3 -10 9 -15 12 -12 3 3 0 11 -7 18 -10 9 -11 8 -5 -6z"/>
<path d="M3090 2203 c0 -5 5 -15 10 -23 8 -12 10 -11 10 8 0 12 -4 22 -10 22
-5 0 -10 -3 -10 -7z"/>
<path d="M3530 2026 c0 -9 30 -14 35 -6 4 6 -3 10 -14 10 -12 0 -21 -2 -21 -4z"/>
<path d="M3345 1930 c-3 -5 -1 -10 4 -10 6 0 11 5 11 10 0 6 -2 10 -4 10 -3 0
-8 -4 -11 -10z"/>
<path d="M3372 1915 c0 -16 2 -22 5 -12 2 9 2 23 0 30 -3 6 -5 -1 -5 -18z"/>
<path d="M3545 1910 c3 -5 8 -10 11 -10 2 0 4 5 4 10 0 6 -5 10 -11 10 -5 0
-7 -4 -4 -10z"/>
<path d="M3500 1871 c0 -5 7 -12 16 -15 14 -5 15 -4 4 9 -14 17 -20 19 -20 6z"/>
<path d="M3590 1870 c0 -5 5 -10 11 -10 5 0 7 5 4 10 -3 6 -8 10 -11 10 -2 0
-4 -4 -4 -10z"/>
<path d="M3391 1814 c0 -11 3 -14 6 -6 3 7 2 16 -1 19 -3 4 -6 -2 -5 -13z"/>
<path d="M3530 1814 c0 -8 5 -12 10 -9 6 3 10 10 10 16 0 5 -4 9 -10 9 -5 0
-10 -7 -10 -16z"/>
<path d="M3410 1786 c0 -3 9 -10 20 -16 11 -6 20 -8 20 -6 0 3 -9 10 -20 16
-11 6 -20 8 -20 6z"/>
<path d="M3356 1021 c-4 -5 1 -8 9 -7 21 3 31 16 12 16 -9 0 -18 -4 -21 -9z"/>
<path d="M1773 6645 c-36 -15 -41 -34 -22 -82 6 -15 11 -63 10 -105 -1 -84 8
-98 62 -98 38 0 57 30 57 88 0 44 4 54 25 68 36 23 73 13 145 -42 64 -49 77
-69 87 -141 7 -50 26 -56 73 -22 25 19 29 30 35 91 9 85 30 106 92 89 21 -6
49 -11 62 -11 21 0 23 3 18 38 -2 20 -9 52 -15 70 -9 28 -8 36 9 53 19 19 16
19 -293 19 -247 -1 -320 -4 -345 -15z"/>
<path d="M2549 6646 c6 -7 12 -30 13 -51 1 -36 2 -36 35 -30 47 8 71 -8 84
-59 10 -39 13 -43 37 -38 31 5 82 49 82 70 0 25 42 84 55 78 19 -7 81 12 95
29 11 13 -13 15 -200 15 -180 0 -211 -2 -201 -14z"/>
<path d="M2890 6514 c-6 -14 -10 -29 -10 -34 0 -4 -6 -10 -13 -13 -7 -3 -19
-30 -26 -61 -11 -49 -10 -58 3 -72 15 -14 16 -13 16 11 0 14 5 35 10 46 9 15
15 17 30 9 11 -6 17 -16 14 -25 -4 -10 0 -15 11 -15 11 0 15 5 12 14 -4 9 4
18 23 25 l29 10 -18 49 c-29 84 -62 106 -81 56z"/>
<path d="M2977 6383 c-12 -11 -8 -23 8 -23 8 0 15 7 15 15 0 16 -12 20 -23 8z"/>
<path d="M0 5422 l0 -98 108 0 c59 -1 126 -6 148 -11 51 -13 59 -8 60 35 1 40
3 41 46 48 28 5 40 1 63 -20 15 -14 33 -26 40 -26 18 0 48 37 40 50 -4 6 -1
17 5 25 10 11 4 18 -32 34 -33 15 -82 22 -213 30 -93 6 -186 15 -205 21 -61
17 -60 19 -60 -88z"/>
<path d="M950 5390 c-74 -25 -140 -37 -183 -33 -47 5 -48 5 -35 -16 10 -16 23
-21 58 -21 25 0 73 -5 107 -10 50 -8 70 -7 97 4 37 15 64 52 49 67 -13 13 -65
19 -93 9z"/>
<path d="M1281 4895 c-1 -5 -18 -10 -38 -11 -59 0 -186 -40 -203 -63 -8 -11
-22 -30 -31 -43 -12 -17 -29 -23 -77 -28 -42 -4 -66 -2 -78 7 -10 7 -26 13
-36 13 -10 0 -18 5 -18 10 0 16 -43 11 -80 -9 -108 -61 -136 -71 -192 -71
-143 0 -173 81 -50 135 17 8 32 19 32 24 0 17 -51 13 -153 -10 -50 -11 -103
-21 -117 -21 -14 0 -51 -7 -84 -15 -45 -13 -63 -14 -77 -5 -10 7 -32 12 -49
12 l-30 0 0 -196 0 -196 40 7 c28 5 40 3 40 -5 0 -7 8 -2 18 10 16 20 72 36
72 19 0 -18 -13 -39 -25 -39 -7 0 -26 -7 -41 -15 -16 -8 -46 -18 -67 -21 l-37
-7 0 -56 0 -56 37 1 c21 1 50 5 66 9 17 5 33 3 42 -5 10 -8 15 -9 15 -2 0 6
17 14 38 17 20 3 56 11 80 17 40 10 44 9 58 -11 l16 -22 45 27 c39 23 52 25
97 20 61 -8 99 4 141 44 40 37 67 44 123 30 41 -11 57 -10 129 10 45 12 87 28
94 36 6 8 37 21 68 30 31 9 71 25 90 35 29 17 40 18 89 9 86 -16 133 -12 208
15 38 14 82 25 97 25 45 0 67 17 67 51 0 37 -24 48 -59 26 -63 -40 -66 -40
-146 -22 -60 13 -78 21 -84 38 -10 26 7 64 44 101 33 33 32 42 -10 62 -19 9
-35 21 -35 28 -1 15 -28 73 -29 61z m-58 -274 c15 -15 -2 -48 -34 -61 -65 -27
-148 9 -149 64 0 18 6 19 87 13 47 -4 90 -10 96 -16z m-1086 -36 c-4 -8 -2
-17 3 -20 16 -10 12 -35 -5 -35 -15 0 -22 50 -8 63 11 12 15 8 10 -8z"/>
<path d="M5230 4145 c13 -16 50 -21 50 -6 0 10 -24 21 -47 21 -13 0 -13 -3 -3
-15z"/>
<path d="M1008 3213 c-19 -5 -30 -27 -23 -46 7 -17 135 -57 135 -42 0 7 -10
17 -23 24 -12 6 -30 25 -39 41 -17 30 -19 31 -50 23z"/>
</g>
</svg>
